#N canvas 0 38 1512 919 12;
#X obj 12 -111 cnv 15 549 295 empty empty empty 20 12 0 14 #e0e0e0
#404040 0;
#X obj 32 -21 netreceive -u -b;
#X obj 32 9 oscparse;
#X obj 32 39 list trim;
#X obj 32 -111 r on/off;
#X obj 130 80 route caracol;
#X obj 30 80 route semilla;
#X obj 360 80 route abejas;
#X obj 1110 -90 tgl 75 0 empty empty empty 17 7 0 10 #fcfcfc #10a21a
#000000 1 1;
#X obj 1110 -10 s on/off;
#X obj 30 140 s semilla;
#X obj 130 140 s caracol;
#X obj 360 140 s abejas;
#X obj 421 722 dac~;
#X msg 590 620 stop;
#X obj 410 510 bng 15 250 50 0 empty empty empty 17 7 0 10 #fcfcfc
#000000 #000000;
#X obj 410 478 r semilla;
#X obj 671 460 dac~;
#X msg 820 360 stop;
#X obj 670 210 bng 15 250 50 0 empty empty empty 17 7 0 10 #fcfcfc
#000000 #000000;
#X obj 670 180 r caracol;
#X obj 1161 460 dac~;
#X msg 1340 390 stop;
#X obj 1160 240 bng 15 250 50 0 empty empty empty 17 7 0 10 #fcfcfc
#000000 #000000;
#X obj 880 730 dac~;
#X obj 870 500 bng 15 250 50 0 empty empty empty 17 7 0 10 #fcfcfc
#000000 #000000;
#X msg 1040 620 stop;
#X obj 870 470 r abejas;
#X obj 20 240 initbang;
#X obj 93 502 dac~;
#X obj 132 272 bng 15 250 50 0 empty empty empty 17 7 0 10 #fcfcfc
#000000 #000000;
#X obj 130 240 r estado0;
#X obj 460 80 route estado0;
#X obj 460 140 s estado0;
#X obj 590 560 r stop_semilla;
#X obj 590 590 bng 15 250 50 0 empty empty empty 17 7 0 10 #fcfcfc
#000000 #000000;
#X obj 700 300 s stop_semilla;
#X obj 700 280 s stop_abejas;
#X obj 900 580 s stop_semilla;
#X obj 900 560 s stop_caracol;
#X obj 1190 310 s stop_semilla;
#X obj 1190 290 s stop_abejas;
#X obj 1190 270 s stop_caracol;
#X obj 820 340 bng 15 250 50 0 empty empty empty 17 7 0 10 #fcfcfc
#000000 #000000;
#X obj 820 310 r stop_caracol;
#X obj 1340 360 bng 15 250 50 0 empty empty empty 17 7 0 10 #fcfcfc
#000000 #000000;
#X obj 430 570 s stop_abejas;
#X obj 430 550 s stop_caracol;
#X obj 200 350 s stop_semilla;
#X obj 200 330 s stop_abejas;
#X obj 200 310 s stop_caracol;
#X obj 1040 590 bng 15 250 50 0 empty empty empty 17 7 0 10 #fcfcfc
#000000 #000000;
#X obj 1040 560 r stop_abejas;
#X obj 32 -81 route 1;
#X obj 210 -80 route 0;
#X msg 210 -50 listen 0;
#X obj 290 -50 s stop_all;
#X obj 660 -80 r stop_all;
#X obj 660 -50 bng 15 250 50 0 empty empty empty 17 7 0 10 #fcfcfc
#000000 #000000;
#X obj 700 10 s stop_semilla;
#X obj 700 50 s stop_abejas;
#X obj 700 30 s stop_caracol;
#X obj 130 -50 s estado0;
#X msg 670 360 open caracol.wav \, 1;
#X msg 90 400 open estado0.wav \, 1;
#X obj 420 670 readsf~;
#X obj 670 410 readsf~;
#X obj 890 688 readsf~;
#X obj 1160 430 readsf~;
#X obj 92 470 readsf~;
#X obj 470 700 bng 15 250 50 0 empty empty empty 17 7 0 10 #fcfcfc
#000000 #000000;
#X obj 470 720 s semilla;
#X obj 150 500 bng 15 250 50 0 empty empty empty 17 7 0 10 #fcfcfc
#000000 #000000;
#X obj 150 520 s estado0;
#X obj 730 440 bng 15 250 50 0 empty empty empty 17 7 0 10 #fcfcfc
#000000 #000000;
#X obj 730 460 s caracol;
#X obj 960 720 bng 15 250 50 0 empty empty empty 17 7 0 10 #fcfcfc
#000000 #000000;
#X obj 960 740 s abejas;
#X obj 1230 460 bng 15 250 50 0 empty empty empty 17 7 0 10 #fcfcfc
#000000 #000000;
#X obj 230 80 route suben_bajan;
#X obj 430 590 s stop_suben_bajan;
#X obj 1340 330 r stop_suben_bajan;
#X obj 1161 202 r suben_bajan;
#X obj 700 260 s stop_suben_bajan;
#X obj 900 540 s stop_suben_bajan;
#X obj 200 290 s stop_suben_bajan;
#X obj 1230 480 s suben_bajan;
#X floatatom 40 110 5 0 0 0 - - -, f 5;
#X floatatom 160 110 5 0 0 0 - - -, f 5;
#X floatatom 250 110 5 0 0 0 - - -, f 5;
#X floatatom 380 110 5 0 0 0 - - -, f 5;
#X floatatom 470 110 5 0 0 0 - - -, f 5;
#X obj 193 8 print;
#X msg 32 -51 listen 8000;
#X msg 420 622 open semilla.wav \, 1;
#X obj 700 -10 s stop_estado0;
#X msg 260 450 stop;
#X obj 260 420 bng 15 250 50 0 empty empty empty 17 7 0 10 #fcfcfc
#000000 #000000;
#X obj 260 390 r stop_estado0;
#X obj 430 530 s stop_estado0;
#X obj 1190 250 s stop_estado0;
#X obj 700 240 s stop_estado0;
#X obj 900 520 s stop_estado0;
#X obj 700 70 s stop_suben_bajan;
#X msg 1160 360 open suben_bajan.wav \, 1;
#X obj 230 140 s suben_bajan;
#X msg 890 620 open abeja_1.wav \, 1;
#X connect 1 0 2 0;
#X connect 2 0 3 0;
#X connect 3 0 5 0;
#X connect 3 0 6 0;
#X connect 3 0 7 0;
#X connect 3 0 32 0;
#X connect 3 0 79 0;
#X connect 3 0 92 0;
#X connect 4 0 53 0;
#X connect 4 0 54 0;
#X connect 5 0 11 0;
#X connect 5 0 88 0;
#X connect 6 0 10 0;
#X connect 6 0 87 0;
#X connect 7 0 12 0;
#X connect 7 0 90 0;
#X connect 8 0 9 0;
#X connect 14 0 65 0;
#X connect 15 0 94 0;
#X connect 15 0 47 0;
#X connect 15 0 80 0;
#X connect 15 0 99 0;
#X connect 16 0 15 0;
#X connect 18 0 66 0;
#X connect 19 0 63 0;
#X connect 19 0 36 0;
#X connect 19 0 83 0;
#X connect 19 0 101 0;
#X connect 20 0 19 0;
#X connect 22 0 68 0;
#X connect 23 0 40 0;
#X connect 23 0 42 0;
#X connect 23 0 104 0;
#X connect 23 0 100 0;
#X connect 25 0 106 0;
#X connect 26 0 67 0;
#X connect 27 0 25 0;
#X connect 28 0 30 0;
#X connect 30 0 64 0;
#X connect 30 0 50 0;
#X connect 30 0 48 0;
#X connect 30 0 85 0;
#X connect 31 0 30 0;
#X connect 32 0 33 0;
#X connect 32 0 91 0;
#X connect 34 0 35 0;
#X connect 35 0 14 0;
#X connect 43 0 18 0;
#X connect 44 0 43 0;
#X connect 45 0 22 0;
#X connect 51 0 26 0;
#X connect 52 0 51 0;
#X connect 53 0 93 0;
#X connect 53 0 62 0;
#X connect 54 0 55 0;
#X connect 54 0 56 0;
#X connect 55 0 1 0;
#X connect 57 0 58 0;
#X connect 58 0 61 0;
#X connect 58 0 60 0;
#X connect 58 0 59 0;
#X connect 58 0 95 0;
#X connect 58 0 103 0;
#X connect 63 0 66 0;
#X connect 64 0 69 0;
#X connect 65 0 13 0;
#X connect 65 0 13 1;
#X connect 65 1 70 0;
#X connect 66 0 17 0;
#X connect 66 0 17 1;
#X connect 66 1 74 0;
#X connect 67 0 24 0;
#X connect 67 0 24 1;
#X connect 68 0 21 0;
#X connect 68 0 21 1;
#X connect 68 1 78 0;
#X connect 69 0 29 0;
#X connect 69 0 29 1;
#X connect 69 1 72 0;
#X connect 70 0 71 0;
#X connect 72 0 73 0;
#X connect 74 0 75 0;
#X connect 76 0 77 0;
#X connect 78 0 86 0;
#X connect 79 0 89 0;
#X connect 79 0 105 0;
#X connect 81 0 45 0;
#X connect 82 0 23 0;
#X connect 93 0 1 0;
#X connect 94 0 65 0;
#X connect 96 0 69 0;
#X connect 97 0 96 0;
#X connect 98 0 97 0;
#X connect 104 0 68 0;
#X connect 106 0 67 0;
